<svg width="24" height="24" viewBox="0 0 24 24" fill="none" xmlns="http://www.w3.org/2000/svg">
  <rect width="24" height="24" fill="white" fill-opacity="0"/>
  <path d="M8.5 4C8.5 5.38071 7.38071 6.5 6 6.5C4.61929 6.5 3.5 5.38071 3.5 4C3.5 2.61929 4.61929 1.5 6 1.5C7.38071 1.5 8.5 2.61929 8.5 4Z" stroke="currentColor" stroke-width="2"/>
  <path d="M20.5 4C20.5 5.38071 19.3807 6.5 18 6.5C16.6193 6.5 15.5 5.38071 15.5 4C15.5 2.61929 16.6193 1.5 18 1.5C19.3807 1.5 20.5 2.61929 20.5 4Z" stroke="currentColor" stroke-width="2"/>
  <path d="M5.5 13C5.5 14.3807 4.38071 15.5 3 15.5C1.61929 15.5 0.5 14.3807 0.5 13C0.5 11.6193 1.61929 10.5 3 10.5C4.38071 10.5 5.5 11.6193 5.5 13Z" stroke="currentColor" stroke-width="2"/>
  <path d="M23.5 13C23.5 14.3807 22.3807 15.5 21 15.5C19.6193 15.5 18.5 14.3807 18.5 13C18.5 11.6193 19.6193 10.5 21 10.5C22.3807 10.5 23.5 11.6193 23.5 13Z" stroke="currentColor" stroke-width="2"/>
  <path d="M16.5 19C16.5 21.4853 14.4853 23.5 12 23.5C9.51472 23.5 7.5 21.4853 7.5 19C7.5 16.5147 9.51472 14.5 12 14.5C14.4853 14.5 16.5 16.5147 16.5 19Z" stroke="currentColor" stroke-width="2"/>
</svg>